<mxfile host="65bd71144e">
    <diagram id="FlJs9biVHM_OIEgAQD2B" name="Page-1">
        <mxGraphModel dx="708" dy="566" grid="1" gridSize="10" guides="1" tooltips="1" connect="1" arrows="1" fold="1" page="1" pageScale="1" pageWidth="850" pageHeight="1100" math="0" shadow="0">
            <root>
                <mxCell id="0"/>
                <mxCell id="1" parent="0"/>
                <mxCell id="38KTvm5A0aAS51LX1xv1-1" value="VPC" style="points=[[0,0],[0.25,0],[0.5,0],[0.75,0],[1,0],[1,0.25],[1,0.5],[1,0.75],[1,1],[0.75,1],[0.5,1],[0.25,1],[0,1],[0,0.75],[0,0.5],[0,0.25]];outlineConnect=0;gradientColor=none;html=1;whiteSpace=wrap;fontSize=12;fontStyle=0;container=1;pointerEvents=0;collapsible=0;recursiveResize=0;shape=mxgraph.aws4.group;grIcon=mxgraph.aws4.group_vpc;strokeColor=#248814;fillColor=none;verticalAlign=top;align=left;spacingLeft=30;fontColor=#AAB7B8;dashed=0;" parent="1" vertex="1">
                    <mxGeometry x="200" y="280" width="520" height="400" as="geometry"/>
                </mxCell>
                <mxCell id="38KTvm5A0aAS51LX1xv1-2" value="Availability zone" style="sketch=0;outlineConnect=0;gradientColor=none;html=1;whiteSpace=wrap;fontSize=12;fontStyle=0;shape=mxgraph.aws4.group;grIcon=mxgraph.aws4.group_availability_zone;strokeColor=#545B64;fillColor=none;verticalAlign=top;align=left;spacingLeft=30;fontColor=#545B64;dashed=1;" parent="38KTvm5A0aAS51LX1xv1-1" vertex="1">
                    <mxGeometry x="40" y="40" width="440" height="120" as="geometry"/>
                </mxCell>
                <mxCell id="38KTvm5A0aAS51LX1xv1-3" value="Availability zone" style="sketch=0;outlineConnect=0;gradientColor=none;html=1;whiteSpace=wrap;fontSize=12;fontStyle=0;shape=mxgraph.aws4.group;grIcon=mxgraph.aws4.group_availability_zone;strokeColor=#545B64;fillColor=none;verticalAlign=top;align=left;spacingLeft=30;fontColor=#545B64;dashed=1;" parent="38KTvm5A0aAS51LX1xv1-1" vertex="1">
                    <mxGeometry x="40" y="240" width="440" height="120" as="geometry"/>
                </mxCell>
                <mxCell id="38KTvm5A0aAS51LX1xv1-5" value="Private subnet" style="points=[[0,0],[0.25,0],[0.5,0],[0.75,0],[1,0],[1,0.25],[1,0.5],[1,0.75],[1,1],[0.75,1],[0.5,1],[0.25,1],[0,1],[0,0.75],[0,0.5],[0,0.25]];outlineConnect=0;gradientColor=none;html=1;whiteSpace=wrap;fontSize=12;fontStyle=0;container=1;pointerEvents=0;collapsible=0;recursiveResize=0;shape=mxgraph.aws4.group;grIcon=mxgraph.aws4.group_security_group;grStroke=0;strokeColor=#147EBA;fillColor=#E6F2F8;verticalAlign=top;align=left;spacingLeft=30;fontColor=#147EBA;dashed=0;shadow=1;" parent="38KTvm5A0aAS51LX1xv1-1" vertex="1">
                    <mxGeometry x="270" y="70" width="200" height="80" as="geometry"/>
                </mxCell>
                <mxCell id="38KTvm5A0aAS51LX1xv1-25" value="Route Table" style="outlineConnect=0;dashed=0;verticalLabelPosition=bottom;verticalAlign=top;align=center;html=1;shape=mxgraph.aws3.route_table;fillColor=#F58536;gradientColor=none;fontSize=10;" parent="38KTvm5A0aAS51LX1xv1-5" vertex="1">
                    <mxGeometry x="160" y="40" width="30" height="30" as="geometry"/>
                </mxCell>
                <mxCell id="38KTvm5A0aAS51LX1xv1-6" value="Public subnet" style="points=[[0,0],[0.25,0],[0.5,0],[0.75,0],[1,0],[1,0.25],[1,0.5],[1,0.75],[1,1],[0.75,1],[0.5,1],[0.25,1],[0,1],[0,0.75],[0,0.5],[0,0.25]];outlineConnect=0;gradientColor=none;html=1;whiteSpace=wrap;fontSize=12;fontStyle=0;container=1;pointerEvents=0;collapsible=0;recursiveResize=0;shape=mxgraph.aws4.group;grIcon=mxgraph.aws4.group_security_group;grStroke=0;strokeColor=#248814;fillColor=#E9F3E6;verticalAlign=top;align=left;spacingLeft=30;fontColor=#248814;dashed=0;shadow=1;" parent="38KTvm5A0aAS51LX1xv1-1" vertex="1">
                    <mxGeometry x="50" y="70" width="210" height="80" as="geometry"/>
                </mxCell>
                <mxCell id="38KTvm5A0aAS51LX1xv1-11" value="" style="group" parent="38KTvm5A0aAS51LX1xv1-6" vertex="1" connectable="0">
                    <mxGeometry x="145" y="10" width="60" height="60" as="geometry"/>
                </mxCell>
                <mxCell id="38KTvm5A0aAS51LX1xv1-9" value="&lt;font style=&quot;font-size: 10px;&quot;&gt;NAT Gateway&lt;/font&gt;" style="outlineConnect=0;dashed=0;verticalLabelPosition=bottom;verticalAlign=top;align=center;html=1;shape=mxgraph.aws3.vpc_nat_gateway;fillColor=#F58534;gradientColor=none;" parent="38KTvm5A0aAS51LX1xv1-11" vertex="1">
                    <mxGeometry x="15" width="30" height="30" as="geometry"/>
                </mxCell>
                <mxCell id="38KTvm5A0aAS51LX1xv1-7" value="Private subnet" style="points=[[0,0],[0.25,0],[0.5,0],[0.75,0],[1,0],[1,0.25],[1,0.5],[1,0.75],[1,1],[0.75,1],[0.5,1],[0.25,1],[0,1],[0,0.75],[0,0.5],[0,0.25]];outlineConnect=0;gradientColor=none;html=1;whiteSpace=wrap;fontSize=12;fontStyle=0;container=1;pointerEvents=0;collapsible=0;recursiveResize=0;shape=mxgraph.aws4.group;grIcon=mxgraph.aws4.group_security_group;grStroke=0;strokeColor=#147EBA;fillColor=#E6F2F8;verticalAlign=top;align=left;spacingLeft=30;fontColor=#147EBA;dashed=0;shadow=1;" parent="38KTvm5A0aAS51LX1xv1-1" vertex="1">
                    <mxGeometry x="270" y="270" width="200" height="80" as="geometry"/>
                </mxCell>
                <mxCell id="38KTvm5A0aAS51LX1xv1-8" value="Public subnet" style="points=[[0,0],[0.25,0],[0.5,0],[0.75,0],[1,0],[1,0.25],[1,0.5],[1,0.75],[1,1],[0.75,1],[0.5,1],[0.25,1],[0,1],[0,0.75],[0,0.5],[0,0.25]];outlineConnect=0;gradientColor=none;html=1;whiteSpace=wrap;fontSize=12;fontStyle=0;container=1;pointerEvents=0;collapsible=0;recursiveResize=0;shape=mxgraph.aws4.group;grIcon=mxgraph.aws4.group_security_group;grStroke=0;strokeColor=#248814;fillColor=#E9F3E6;verticalAlign=top;align=left;spacingLeft=30;fontColor=#248814;dashed=0;shadow=1;" parent="38KTvm5A0aAS51LX1xv1-1" vertex="1">
                    <mxGeometry x="50" y="270" width="210" height="80" as="geometry"/>
                </mxCell>
                <mxCell id="38KTvm5A0aAS51LX1xv1-12" value="" style="group" parent="38KTvm5A0aAS51LX1xv1-1" vertex="1" connectable="0">
                    <mxGeometry x="200" y="280" width="60" height="60" as="geometry"/>
                </mxCell>
                <mxCell id="38KTvm5A0aAS51LX1xv1-13" value="&lt;font style=&quot;font-size: 10px;&quot;&gt;NAT Gateway&lt;/font&gt;" style="outlineConnect=0;dashed=0;verticalLabelPosition=bottom;verticalAlign=top;align=center;html=1;shape=mxgraph.aws3.vpc_nat_gateway;fillColor=#F58534;gradientColor=none;" parent="38KTvm5A0aAS51LX1xv1-12" vertex="1">
                    <mxGeometry x="15" width="30" height="30" as="geometry"/>
                </mxCell>
                <mxCell id="38KTvm5A0aAS51LX1xv1-23" value="Route Table" style="outlineConnect=0;dashed=0;verticalLabelPosition=bottom;verticalAlign=top;align=center;html=1;shape=mxgraph.aws3.route_table;fillColor=#F58536;gradientColor=none;fontSize=10;" parent="38KTvm5A0aAS51LX1xv1-1" vertex="1">
                    <mxGeometry x="430" y="310" width="30" height="30" as="geometry"/>
                </mxCell>
                <mxCell id="38KTvm5A0aAS51LX1xv1-27" value="External Load &lt;br&gt;Balancer" style="verticalLabelPosition=bottom;html=1;verticalAlign=top;align=center;strokeColor=none;fillColor=#00BEF2;shape=mxgraph.azure.load_balancer_generic;pointerEvents=1;fontSize=10;" parent="38KTvm5A0aAS51LX1xv1-1" vertex="1">
                    <mxGeometry x="150" y="175" width="20" height="25" as="geometry"/>
                </mxCell>
                <mxCell id="38KTvm5A0aAS51LX1xv1-28" value="Internal Load&lt;br&gt;Balancer" style="verticalLabelPosition=bottom;html=1;verticalAlign=top;align=center;strokeColor=none;fillColor=#00BEF2;shape=mxgraph.azure.load_balancer_generic;pointerEvents=1;fontSize=10;" parent="38KTvm5A0aAS51LX1xv1-1" vertex="1">
                    <mxGeometry x="350" y="175" width="20" height="25" as="geometry"/>
                </mxCell>
                <mxCell id="38KTvm5A0aAS51LX1xv1-30" style="edgeStyle=orthogonalEdgeStyle;rounded=0;orthogonalLoop=1;jettySize=auto;html=1;fontSize=10;" parent="38KTvm5A0aAS51LX1xv1-1" source="38KTvm5A0aAS51LX1xv1-21" target="38KTvm5A0aAS51LX1xv1-6" edge="1">
                    <mxGeometry relative="1" as="geometry">
                        <Array as="points">
                            <mxPoint x="85" y="160"/>
                            <mxPoint x="85" y="160"/>
                        </Array>
                    </mxGeometry>
                </mxCell>
                <mxCell id="38KTvm5A0aAS51LX1xv1-31" style="edgeStyle=orthogonalEdgeStyle;rounded=0;orthogonalLoop=1;jettySize=auto;html=1;fontSize=10;" parent="38KTvm5A0aAS51LX1xv1-1" source="38KTvm5A0aAS51LX1xv1-21" target="38KTvm5A0aAS51LX1xv1-8" edge="1">
                    <mxGeometry relative="1" as="geometry">
                        <Array as="points">
                            <mxPoint x="85" y="250"/>
                            <mxPoint x="85" y="250"/>
                        </Array>
                    </mxGeometry>
                </mxCell>
                <mxCell id="38KTvm5A0aAS51LX1xv1-21" value="Route Table" style="outlineConnect=0;dashed=0;verticalLabelPosition=bottom;verticalAlign=top;align=center;html=1;shape=mxgraph.aws3.route_table;fillColor=#F58536;gradientColor=none;fontSize=10;" parent="38KTvm5A0aAS51LX1xv1-1" vertex="1">
                    <mxGeometry x="70" y="175" width="30" height="30" as="geometry"/>
                </mxCell>
                <mxCell id="38KTvm5A0aAS51LX1xv1-16" value="Internet Gateway" style="outlineConnect=0;dashed=0;verticalLabelPosition=bottom;verticalAlign=top;align=center;html=1;shape=mxgraph.aws3.internet_gateway;fillColor=#F58536;gradientColor=none;fontSize=10;" parent="1" vertex="1">
                    <mxGeometry x="180" y="456" width="30" height="30" as="geometry"/>
                </mxCell>
            </root>
        </mxGraphModel>
    </diagram>
</mxfile>